<svg width="32" height="32" viewBox="0 0 32 32" fill="none" xmlns="http://www.w3.org/2000/svg">
<path d="M8.05129 25.1497C7.68508 25.5157 7.68508 26.1094 8.05129 26.4754L10.482 28.9061L7.72511 31.6629C7.35915 32.0291 6.7654 32.0291 6.39943 31.6629L0.212159 25.4756C-0.154053 25.1097 -0.154053 24.5159 0.212159 24.15L24.15 0.212159C24.5159 -0.154053 25.1097 -0.154053 25.4756 0.212159L31.6629 6.39918C31.846 6.58229 31.9376 6.82228 31.9376 7.06227C31.9376 7.30202 31.846 7.54201 31.6629 7.72511L28.9061 10.482L25.5916 7.16725C25.2254 6.80104 24.6319 6.80104 24.2657 7.16725C23.8997 7.53346 23.8997 8.12697 24.2657 8.49318L27.5801 11.8076L25.4864 13.9016L23.0557 11.4707C22.6897 11.1048 22.096 11.1048 21.7298 11.4707C21.3638 11.8369 21.3638 12.4304 21.7298 12.7967L24.1605 15.2273L22.0667 17.3213L18.7522 14.0066C18.386 13.6407 17.7925 13.6407 17.4263 14.0066C17.0603 14.3728 17.0603 14.9663 17.4263 15.3326L20.7408 18.647L18.647 20.741L16.2163 18.3103C15.8501 17.9441 15.2566 17.9441 14.8904 18.3103C14.5244 18.6763 14.5244 19.2698 14.8904 19.636L17.3211 22.0667L15.2273 24.1607L11.9129 20.846C11.5467 20.48 10.9531 20.48 10.5869 20.846C10.221 21.2122 10.221 21.8057 10.5869 22.1719L13.9014 25.4864L11.8076 27.5804L9.37697 25.1497C9.01101 24.7835 8.41725 24.7835 8.05129 25.1497Z" fill="#2405F2"/>
</svg>
